<?xml version="1.0" encoding="utf-8"?>
<!-- Generator: Adobe Illustrator 26.0.3, SVG Export Plug-In . SVG Version: 6.00 Build 0)  -->
<svg version="1.1" id="Calque_1" xmlns="http://www.w3.org/2000/svg" xmlns:xlink="http://www.w3.org/1999/xlink" x="0px" y="0px"
	 viewBox="0 0 60 60" style="enable-background:new 0 0 60 60;" xml:space="preserve">
<g>
	<path d="M16.7,34.5c-1.5,0.1-3.1-0.3-4.4-1l-0.2-0.1v2.5l0.1,0c1.5,0.6,3.1,0.9,4.7,0.9c3.9,0,5.3-2.1,5.3-4.1
		c0.1-1.5-0.8-2.9-2.3-3.4c1.1-0.6,1.8-1.7,1.7-2.9c0-2.3-1.9-3.8-4.8-3.8c-1.5,0-3,0.3-4.4,1l-0.1,0v2.5l0.2-0.1
		c1.2-0.7,2.5-1.1,3.9-1.1c1.7,0,2.7,0.6,2.7,1.8c0,1.1-0.9,1.7-2.4,1.7l-2,0v2.3H17c1.8,0,2.7,0.6,2.7,1.9
		C19.7,34.1,18.1,34.5,16.7,34.5z"/>
	<path d="M35.2,32.2c0-2.9-2.4-4.4-4.8-4.4l0,0c-1.3,0-2.6,0.3-3.7,1c0.4-3.1,2.4-3.8,4-3.8c1.1,0,2.2,0.3,3.2,0.8l0.2,0.1v-2.4
		l-0.1,0c-1.1-0.5-2.3-0.8-3.5-0.8c-4,0-6.4,2.7-6.4,7.2c0,4.6,2.1,7,6,7C32.6,36.8,35.2,35.4,35.2,32.2z M29.9,34.6L29.9,34.6
		c-1.9,0-3-1.1-3.2-3.5c0.9-0.7,2-1,3.1-1c1.3,0,2.8,0.4,2.8,2.2C32.6,34.3,30.9,34.6,29.9,34.6z"/>
	<path d="M43.1,22.6c-3.9,0-6.2,2.7-6.2,7.1s2.3,7.1,6.2,7.1s6.2-2.7,6.2-7.1S46.9,22.6,43.1,22.6z M43.1,34.5L43.1,34.5
		c-2.4,0-3.6-1.6-3.6-4.8s1.2-4.8,3.6-4.8s3.6,1.6,3.6,4.8S45.5,34.5,43.1,34.5z"/>
	<polygon points="5.3,46.9 6.3,46.9 6.3,45.1 8.4,45.1 8.4,44.2 6.3,44.2 6.3,43.1 8.6,43.1 8.6,42.3 5.3,42.3 	"/>
	<path d="M11.2,42.2l-1.9,4.6l1,0l0.3-0.9h2.1l0.3,0.9h1l-1.9-4.6H11.2z M11,45.2l0.6-1.7c0.1-0.1,0.1-0.2,0.1-0.4
		c0,0.1,0.1,0.2,0.1,0.4l0.7,1.7H11z"/>
	<polygon points="19.6,46.9 19.6,42.3 18.6,42.3 18.6,44.1 16.5,44.1 16.5,42.3 15.5,42.3 15.5,46.9 16.5,46.9 16.5,45 18.6,45 
		18.6,46.9 	"/>
	<path d="M22.4,45.2h0.7l1.3,1.6h1.1l-1.4-1.8c0.6-0.2,1.1-0.7,1-1.4c0-1.2-0.9-1.5-1.8-1.5h-1.9v4.6h1V45.2z M22.4,43.1h1
		c0.4,0,0.8,0.2,0.8,0.7s-0.4,0.7-0.8,0.7h-1V43.1z"/>
	<polygon points="30.1,43.1 30.1,42.3 26.9,42.3 26.9,46.9 30.2,46.9 30.2,46 27.9,46 27.9,45 29.9,45 29.9,44.1 27.9,44.1 
		27.9,43.1 	"/>
	<path d="M35.8,46.9v-4.6h-1v2.4c0,0.2,0,0.4,0,0.6l-2.2-3h-0.9v4.6l1,0v-2.4c0-0.2,0-0.4,0-0.6l2.2,3H35.8z"/>
	<polygon points="40.7,44.1 38.6,44.1 38.6,42.3 37.7,42.3 37.7,46.9 38.6,46.9 38.6,45 40.7,45 40.7,46.9 41.7,46.9 41.7,42.3 
		40.7,42.3 	"/>
	<polygon points="44.5,45 46.6,45 46.6,44.1 44.5,44.1 44.5,43.1 46.8,43.1 46.8,42.3 43.5,42.3 43.5,46.9 46.8,46.9 46.8,46 
		44.5,46 	"/>
	<rect x="48.5" y="42.3" width="1" height="4.6"/>
	<polygon points="50.9,43.1 52.3,43.1 52.3,46.9 53.3,46.9 53.3,43.1 54.7,43.1 54.7,42.3 50.9,42.3 	"/>
	<path d="M8.2,40.2l1.7-1.7l-6.8-6.8c-0.5-0.5-0.7-1.1-0.7-1.8c0-0.7,0.3-1.3,0.7-1.8L28.2,3.1c0.5-0.5,1.1-0.7,1.8-0.7
		c0.7,0,1.3,0.3,1.8,0.7L48.7,20l1.7-1.7L33.5,1.4C32.6,0.5,31.3,0,30,0c-1.3,0-2.6,0.5-3.5,1.4L1.4,26.5C0.5,27.4,0,28.7,0,30
		c0,1.3,0.5,2.6,1.4,3.5L8.2,40.2L8.2,40.2z"/>
	<path d="M39.4,49.3l-7.6,7.6c-0.5,0.5-1.1,0.7-1.8,0.7c-0.7,0-1.3-0.3-1.8-0.7l-7.6-7.6l-0.1-0.1l-1.7,1.7l7.7,7.7
		c0.9,0.9,2.2,1.4,3.5,1.4c1.3,0,2.6-0.5,3.5-1.4l7.7-7.7l0.1-0.1l-1.5-1.5H39.4z"/>
	<path d="M58.6,26.5l-1.7-1.7l-1.7,1.7l1.7,1.7c0.5,0.5,0.7,1.1,0.7,1.8c0,0.7-0.3,1.3-0.7,1.8l-6.6,6.6l-0.1,0.1l1.7,1.7l6.7-6.7
		c0.9-0.9,1.4-2.2,1.4-3.5C60,28.7,59.5,27.4,58.6,26.5z"/>
	<path d="M52.5,25.2c1.5,0.2,3-0.9,3.2-2.4c0.2-1.5-0.9-3-2.4-3.2c-1.5-0.2-3,0.9-3.2,2.4C49.8,23.6,50.9,25,52.5,25.2z M53,21.3
		c0.6,0.1,1.1,0.6,1,1.3c-0.1,0.6-0.6,1.1-1.3,1c-0.6-0.1-1.1-0.6-1-1.3C51.8,21.6,52.4,21.2,53,21.3z"/>
</g>
</svg>
